<?xml version="1.0" encoding="UTF-8"?>
<svg id="Layer_1" data-name="Layer 1" xmlns="http://www.w3.org/2000/svg" viewBox="0 0 1080 1080">
  <path d="m108.88,865.48c-2.23,0-4.14-.95-5.73-2.85-1.59-1.9-2.39-4.62-2.39-8.17v-36.67c0-.57.03-1.14.08-1.71-.32-6.97-2.6-12.95-6.85-17.95-4.62-5.51-10.19-8.26-16.72-8.26h-.32c-6.53,0-12.1,2.75-16.72,8.26-4.25,5-6.53,10.99-6.85,17.95.05.57.08,1.14.08,1.71v36.67c0,3.55-.8,6.27-2.39,8.17-1.59,1.9-3.51,2.85-5.73,2.85s-4.14-.95-5.73-2.85c-1.59-1.9-2.39-4.69-2.39-8.36v-36.67c.11-12.92,3.98-23.94,11.62-33.06,7.22-8.61,16.43-13.3,27.63-14.06h1.28c11.2.76,20.41,5.45,27.63,14.06,1.32,1.58,2.52,3.2,3.58,4.84,1.06-1.64,2.26-3.26,3.58-4.84,7.22-8.61,16.43-13.3,27.63-14.06h1.28c11.2.76,20.41,5.45,27.63,14.06,7.64,9.12,11.52,20.14,11.62,33.06v36.67c0,3.68-.8,6.46-2.39,8.36-1.59,1.9-3.5,2.85-5.73,2.85s-4.14-.95-5.73-2.85c-1.59-1.9-2.39-4.62-2.39-8.17v-36.67c0-.57.03-1.14.08-1.71-.32-6.97-2.6-12.95-6.85-17.95-4.62-5.51-10.19-8.26-16.72-8.26h-.32c-6.53,0-12.1,2.75-16.72,8.26-4.25,5-6.53,10.99-6.85,17.95.05.57.08,1.14.08,1.71v36.67c0,3.55-.79,6.27-2.39,8.17-1.59,1.9-3.5,2.85-5.73,2.85h-.16Z" fill="#272931"/>
  <path d="m250.8,792.24c-3.49-1.58-7.32-2.37-11.5-2.37-7.79,0-14.44,2.74-19.95,8.21-5.51,5.48-8.26,12.11-8.26,19.9s2.76,14.44,8.26,19.95c5.51,5.51,12.16,8.26,19.95,8.26s14.34-2.72,19.85-8.17c.06-.06.13-.13.19-.19,1.84-1.84,4.08-2.75,6.74-2.75s4.94.93,6.84,2.8c1.9,1.87,2.85,4.13,2.85,6.79s-.95,4.94-2.85,6.84l-.19.19c-9.19,9.19-20.33,13.78-33.44,13.78s-24.29-4.62-33.53-13.87c-9.25-9.24-13.87-20.42-13.87-33.53s4.62-24.29,13.87-33.53c9.24-9.24,20.42-13.87,33.53-13.87s24.25,4.59,33.44,13.78l-.1.09c0,.07.03.1.1.1,1.84,1.84,2.75,4.09,2.75,6.74s-.92,4.82-2.75,6.65l-27.17,26.98c-1.9,1.84-4.18,2.76-6.84,2.76s-5.03-.92-6.94-2.76c-1.84-1.9-2.75-4.21-2.75-6.93s.92-4.94,2.75-6.84l19-19Z" fill="#272931"/>
  <path d="m373.74,856.17c0,3.67-.95,6.14-2.85,7.41-1.9,1.27-4.18,1.9-6.84,1.9s-4.94-.63-6.84-1.9c-1.9-1.27-2.85-3.68-2.85-7.22-8.11,6.08-17.45,9.12-28.02,9.12-13.11,0-24.29-4.62-33.53-13.87-9.25-9.24-13.87-20.42-13.87-33.53s4.62-24.29,13.87-33.53c9.24-9.24,20.42-13.87,33.53-13.87s24.29,4.62,33.53,13.87c9.12,9.12,13.74,20.14,13.87,33.06v38.57Zm-27.45-58.04c-5.51-5.51-12.16-8.26-19.95-8.26s-14.42,2.74-19.9,8.21c-5.48,5.48-8.21,12.11-8.21,19.9s2.74,14.44,8.21,19.95c5.48,5.51,12.11,8.26,19.9,8.26s14.44-2.76,19.95-8.26c4.69-4.69,7.38-10.2,8.08-16.53v-3.61c0-.57.03-1.14.09-1.71-.38-6.97-3.1-12.95-8.17-17.95Z" fill="#272931"/>
  <path d="m396.78,745.41c1.9,1.9,2.85,4.18,2.85,6.84v103.54c0,2.66-.95,4.94-2.85,6.84-1.9,1.9-4.18,2.85-6.84,2.85s-4.94-.95-6.84-2.85c-1.9-1.9-2.85-4.18-2.85-6.84v-103.54c0-2.66.95-4.94,2.85-6.84,1.9-1.9,4.18-2.85,6.84-2.85s4.94.95,6.84,2.85Z" fill="#272931"/>
  <path d="m50.68,843.36c1.55,1.9,2.32,4.18,2.32,6.84v103.54c0,2.66-.77,4.94-2.32,6.84-1.55,1.9-3.41,2.85-5.57,2.85s-4.02-.95-5.57-2.85c-1.55-1.9-2.32-4.18-2.32-6.84v-103.54c0-2.66.77-4.94,2.32-6.84,1.55-1.9,3.4-2.85,5.57-2.85s4.02.95,5.57,2.85Z" fill="#272931"/>
  <path d="m170.11,954.12c0,3.67-.95,6.14-2.85,7.41-1.9,1.27-4.18,1.9-6.84,1.9s-4.94-.63-6.84-1.9c-1.9-1.27-2.85-3.68-2.85-7.22-8.11,6.08-17.45,9.12-28.02,9.12-13.11,0-24.29-4.62-33.53-13.87-9.25-9.24-13.87-20.42-13.87-33.53s4.62-24.29,13.87-33.53c9.24-9.24,20.42-13.87,33.53-13.87s24.29,4.62,33.53,13.87c9.12,9.12,13.74,20.14,13.87,33.06v38.57Zm-27.45-58.04c-5.51-5.51-12.16-8.26-19.95-8.26s-14.42,2.74-19.9,8.21c-5.48,5.48-8.21,12.11-8.21,19.9s2.74,14.44,8.21,19.95c5.48,5.51,12.11,8.26,19.9,8.26s14.44-2.76,19.95-8.26c4.69-4.69,7.38-10.2,8.08-16.53v-3.61c0-.57.03-1.14.09-1.71-.38-6.97-3.1-12.95-8.17-17.95Z" fill="#272931"/>
  <path d="m237.84,868.44c13.36.76,24.35,5.45,32.96,14.06,9.12,9.12,13.74,20.14,13.87,33.06v36.67c0,3.68-.95,6.46-2.85,8.36s-4.18,2.85-6.84,2.85-4.94-.95-6.84-2.85c-1.9-1.9-2.85-4.62-2.85-8.17v-36.67c0-.57.03-1.14.1-1.71-.38-6.97-3.11-12.95-8.17-17.95-5.51-5.51-12.16-8.26-19.95-8.26h-.38c-7.79,0-14.44,2.75-19.95,8.26-5.07,5-7.79,10.99-8.17,17.95.06.57.1,1.14.1,1.71v36.67c0,3.55-.95,6.27-2.85,8.17-1.9,1.9-4.18,2.85-6.84,2.85s-4.94-.95-6.84-2.85c-1.9-1.9-2.85-4.69-2.85-8.36v-36.67c.13-12.92,4.75-23.94,13.87-33.06,8.61-8.61,19.6-13.3,32.96-14.06h1.52Z" fill="#272931"/>
  <path d="m399.63,916.5c-.13,12.92-4.75,23.94-13.87,33.06-9.24,9.24-20.42,13.87-33.53,13.87s-24.29-4.62-33.53-13.87c-9.25-9.24-13.87-20.42-13.87-33.53s4.62-24.29,13.87-33.53c9.24-9.24,20.42-13.87,33.53-13.87,10.57,0,19.91,3.04,28.02,9.12v-27.93c0-2.66.95-4.94,2.85-6.84,1.9-1.9,4.18-2.85,6.84-2.85s4.94.95,6.84,2.85c1.9,1.9,2.85,4.18,2.85,6.84v66.68Zm-19.28,1.52c-.06-.57-.09-1.14-.09-1.71v-3.61c-.7-6.33-3.39-11.84-8.08-16.53-5.51-5.51-12.16-8.26-19.95-8.26s-14.42,2.76-19.9,8.26c-5.48,5.51-8.21,12.16-8.21,19.95s2.74,14.42,8.21,19.9c5.48,5.48,12.11,8.21,19.9,8.21s14.44-2.75,19.95-8.26c5.07-5,7.79-10.98,8.17-17.95Z" fill="#272931"/>
  <path d="m554.14,773.92c-32,51.91-79.2,89.33-140.1,101.71-5.92,1.2-10.2,6.35-10.2,12.39v55.06c0,9.31,8.64,16.21,17.72,14.19,18.59-4.14,36.5-10.07,53.55-17.6,85.19-37.67,144.47-117.14,159.67-209.04.28-1.68.55-3.37.8-5.05,4.07-26.8,7.33-52.73,9.89-77.79,33.15-324.59-52.82-503.16-52.82-503.16-27.5-61.38-94-110.8-165.61-110.8-98.13,0-177.5,80.29-176.01,178.73.98,67.34,40.6,125.83,97.68,154.52,42.06,21.13,92.12,21.1,132.52-3.01,62.28-37.17,58.49-101.33,58.49-101.33-.34-2.61-3.88-3.2-5.03-.81-13.26,27.25-36.66,48.69-65.29,59.42-1.15.42-2.3.84-3.48,1.24-.03.03-.06.03-.11.03-14.52,6.12-35.96,7.05-35.96,7.05-8.54,0-16.86-.9-24.89-2.61-5.87-1.24-11.57-2.89-17.11-5-45.46-16.97-77.79-60.79-77.79-112.18,0-48.38,28.66-90.04,69.95-108.95,15.25-5.65,31.61-8.68,48.41-8.68,15.37,0,30.43,2.84,44.78,8.46,0,0,71.89,25.17,89.62,137.83,1.38,8.74,2.78,17.45,4.52,26.1,6.83,34.25,23.91,130.92,24.86,242.62,0,0,12.16,185.22-38.07,266.69Z" fill="#272931"/>
  <path d="m829.54,885.84c0,4.61-3.74,8.34-8.34,8.34-.51,0-.98-.06-1.46-.14-1.12-.53-2.28-1.01-3.46-1.46-9.21-3.65-19.27-5.65-29.81-5.65s-20.65,2.02-29.89,5.67c-1.15.45-2.28.9-3.37,1.43-.48.08-.98.14-1.49.14-4.61,0-8.34-3.74-8.34-8.34,0-2.58,1.18-4.92,3.03-6.43.03-.03.06-.06.08-.06.9-.53,1.8-1.01,2.73-1.49h.03c.81-.45,1.63-.84,2.47-1.24,10.54-5,22.31-7.78,34.75-7.78s24.19,2.78,34.72,7.75c.84.39,1.66.81,2.47,1.26.06,0,.11.03.14.06.87.42,1.71.87,2.53,1.38,1.94,1.49,3.2,3.88,3.2,6.55Z" fill="#272931"/>
  <path d="m911.41,816.82c-37.3-205.37,0-374.52,0-374.52,2.91.27,5.87.36,8.83.36,65.09,0,117.82-52.77,117.82-117.82,0-61.6-47.25-112.17-107.55-117.32.99-7.44,1.52-15.02,1.52-22.73,0-92.76-75.23-167.98-168.03-167.98-19.45,0-37.93,3.7-55.02,10.37-68.61,26.79-107.47,99.73-94.42,172.22,9.13,50.71,22,130.99,27,204.75,10.16,149.73,5.05,264.45-12.88,353.82l.41,5.08c83.7.72,178.16,14.51,282.3,53.77" fill="#f9f3dc"/>
  <path d="m801.26,686.36s4.58,69.81,37.58,96.25c8.75,7.01-35.61,4.35-42-4.04-14.42-18.91,4.42-92.21,4.42-92.21Z" fill="#c9e2d4"/>
  <path d="m721.75,702.37s9.56,54.51,42.56,64.09c0,0-28.39-.05-34.12-5.78-17.04-17.04-8.44-58.32-8.44-58.32Z" fill="#c9e2d4"/>
  <path d="m801.79,684.73c2.35,18.06-.07,37.08-1.94,54.67-.75,6.9-1.52,13.8-1.59,20.71-.06,6.46.4,12.78,4.25,18.28,1.22,1.73,2.79,3.51,4.69,5.29l-.32,1.37c-30.7-7-21.55-52.4-15.51-74.53,2.51-8.96,5.51-17.74,9.12-26.31,0,0,1.3.53,1.3.53h0Z" fill="#282931"/>
  <path d="m1038.06,324.84s-13.23,74.51-70.37,107.88c-72.6,42.4-112.34-25.72-112.34-25.72,27.48,18.83,48.49,21.61,68.49,18.79,15.32-2.16,42.15-18.03,52.84-29.21,56.17-58.68,1.4-143.99-21.79-151.24-113.38,131.48-213.8,45.79-213.8,45.79,145.1,69.48,193-72.96,193-72.96,1.12.08,2.22.2,3.29.34l-6.85-10.98c72.68-9.27,107.54,117.32,107.54,117.32Z" fill="#c9e2d4"/>
  <path d="m723.26,691.02c-1.18,11.68-1.71,23.32-.87,34.93.44,7.29,1.48,14.86,4.47,21.4,4.65,10.96,6.96,16.74,17.82,23.34,0,0-.12,1.4-.12,1.4-8.87,3.67-19.8-.62-25.5-8.22-6-7.4-6.4-16.92-6.55-25.71-.08-4.21.15-8.35.55-12.42,1.45-12.04,4.41-23.87,8.85-35.08,0,0,1.36.36,1.36.36h0Z" fill="#282931"/>
  <path d="m862.72,415.55s2.91,295.45,34.14,352.1l6.49-327.64-40.63-24.47Z" fill="#c9e2d4"/>
  <path d="m909.69,453.46c-12.12-4.51-23.43-11.64-33.23-19.94-5.86-4.92-11.26-10.88-15.79-17.04-.8-1.25-2.97-4.49-3.74-5.74-.74-1.34-2.46-4.59-3.2-5.96,0,0,3.23,3.09,3.23,3.09,1.73,1.78,4.78,4.07,6.73,5.66,1.31.89,4.12,2.84,5.39,3.66,2.85,1.71,6.4,3.68,9.44,5.1,11.12,5.08,23.13,8.44,35.31,9.16.17.01.19-.02.3-.02l-4.45,22.03h0Z" fill="#282931"/>
  <path d="m734.24,286.9c43.7,21.3,96.27,18.99,135.95-9.48,52.78-37.4,67.77-109.15,36.51-165.48-7.83-14.4-18.39-27.15-30.69-38.26,39.81,18.64,65.6,62.35,66.65,106.19,1.39,36.33-13.45,72.74-39.36,98.19-44.65,44.91-121.03,51.6-169.06,8.84h0Z" fill="#282931"/>
  <path d="m911.41,816.82c-37.3-205.37,0-374.52,0-374.52,2.91.27,5.87.36,8.83.36,65.09,0,117.82-52.77,117.82-117.82,0-61.6-47.25-112.17-107.55-117.32.99-7.44,1.52-15.02,1.52-22.73,0-92.76-75.23-167.98-168.03-167.98-19.45,0-37.93,3.7-55.02,10.37-68.61,26.79-107.47,99.73-94.42,172.22,9.13,50.71,22,130.99,27,204.75,10.16,149.73,5.05,264.45-12.88,353.82l.41,5.08c83.7.72,178.16,14.51,282.3,53.77" fill="none" stroke="#282931" stroke-linecap="round" stroke-linejoin="round" stroke-width="22.47"/>
  <path d="m384.91,376.98c-1.49-.39-2.95-.81-4.41-1.26,1.32-1.18,2.61-2.44,3.82-3.76l.59,5.03Z" fill="#272931"/>
  <path d="m488.94,346.05l-2.12,1.87c-28.3,24.92-67.92,32.71-96.23,17.96-7.28-3.79-14.26-8.45-20.23-14.15,0,0,51.77,40.66,118.59-5.68Z" fill="#f9f3dc"/>
  <path d="m295.68,116.52c8.43-28.09,98.33-92.71,168.56-64.62-89.9-11.24-146.09,42.14-168.56,64.62Z" fill="#f9f3dc"/>
  <path d="m405.25,796.09v-48.25c0-4.29,2.56-8.14,6.49-9.86,50.25-22.04,56.72-142.46,56.72-142.46,8.43-116.59-12.64-206.49-12.64-206.49,25.28-2.81,42.14-14.05,56.19-28.09,11.24,53.38,16.41,120.75,16.41,120.75,3.54,48.97,1.52,94.62-4.21,138.78,0,0-3.76,53.34-24.36,102.59-6.97,16.67-16.65,33.04-29.98,45.23-12.54,11.47-25.28,25.28-53.06,34.97-5.6,1.95-11.56-1.25-11.56-7.18Z" fill="#272931"/>
  <path d="m273.95,288.41c.67,1.67.39,3.53-.95,4.72-10.48,9.37-18.08,21.77-21.48,35.65-1.97,8-2.55,16.47-1.51,25.13,4.55,37.8,39.48,65.53,77.33,61.41,13.77-1.5,26.14-6.88,36.2-14.97,1.03-.82,2.05-1.67,3.04-2.55,1.25-1.11,3.17-.03,2.89,1.61-9.55,55.04-52.41,61.3-85.28,57.45-29.74-3.48-56.53-20.44-71.88-46.15-.09-.14-.17-.29-.25-.43-10.21-17.2-16.53-37.02-17.72-58.28-1.38-25.2,4.39-49.6,16.62-70.92,3.04-5.12,6.45-10.05,10.2-14.71,10.57-13.18,23.81-24.27,38.99-32.38,1.04-.55,2.29.24,2.23,1.41-.37,7.3,2.41,30.01,11.58,53Z" fill="#272931"/>
  <path d="m360.3,414.32c-2.81,16.86-34.52,38.39-41.12,32.67-1.04-.9-.93-2.47-.08-3.55,4.29-5.51,18.03-.79,41.2-29.11Z" fill="#f9f3dc"/>
  <path d="m253.54,248.56l2.81,8.43s-36.52,22.47-47.76,56.19c0,0,11.24-42.14,44.95-64.62Z" fill="#f9f3dc"/>
  <path d="m517.62,577.26c.86.14,0,143.28-61.81,185.42h0c0-3.23,1.51-6.25,4.11-8.16,3.65-2.68,9.35-7.85,15.56-17.12,12.79-19.11,22.92-47.83,28.09-70.23,7.02-30.44,10.15-70.64,10.99-83.18.17-2.54,1.26-4.92,3.06-6.72h0Z" fill="#f9f3dc"/>
  <path d="m416.48,905.62v-5.84c0-6.2,3.98-11.73,9.88-13.61,10.75-3.42,15.92-3.06,29.08-11.42.86-.55,1.76.63,1,1.31l-35.51,31.57c-1.72,1.53-4.45.31-4.45-2Z" fill="#f9f3dc"/>
  <path d="m607.52,787.96s-39.33,87.09-115.18,123.61c0,0,61.81-39.33,115.18-123.61Z" fill="#f9f3dc"/>
  <path d="m414.14,1039.4c-4.1.7-3.56,5.14.05,7.2,19.37,11.06,64.15,22.3,86.8,22.3,30.9,0,106.76-5.62,146.88-61.94,49.78,56.33,77.87,59.14,128.44,61.94,14.27.79,70.23-2.81,94.94-20.66,3.33-2.41,4.41-6.27.4-7.17-63.6-14.33-116.98-30.26-159.79-70.78-21.14-19.98-39.02-36.12-52.92-60.63-4.13-7.29-14.5-7.42-18.8-.23-14.83,24.8-33.78,41.12-56.06,61.08-46.36,41.54-101.58,57.14-169.95,68.89Z" fill="#200e0d"/>
  <path d="m670.53,1009.12s23.08,42.66,119.77,49.9c0,0-40.03-10.07-65.1-20.69-30.81-13.05-54.68-29.21-54.68-29.21Z" fill="#eb5e2b"/>
  <path d="m650.7,921.71c1.33-.36,1.71-2.09.61-2.92-2.37-1.81-6.37-3.19-10.84,2.33-7.96,9.83-5.65,7.17-10.12,13.78,0,0,9.4-10.24,20.34-13.19Z" fill="#eb5e2b"/>
</svg>